. 
 
http://www.torrenting.com          :     Once & For all ;)


               www . Torrenting . Com 

(((((((((((((= Enjoy No RAR releases =))))))))))))))))))))


...................................NFO:....................................

.








































          
          
              
              
                    
                    
                    
                    
An.American.Crime.2007.BRRiP.XviD.AC3-SiC

Poster:
[img]http://img857.imageshack.us/img857/8970/anamericancrimebr.png[/img]

IMDB Link: 
http://www.imdb.com/title/tt0802948

Description:
The true story of suburban housewife Gertrude Baniszewski, who kept a teenage girl locked in the basement of her Indiana home during the 1960s.

Drama | Indie

General:
Complete name                            : An.American.Crime.2007.BRRiP.XviD.AC3-SiC.avi
Format                                   : AVI
Format/Info                              : Audio Video Interleave
File size                                : 1 001 MiB
Duration                                 : 1h 37mn
Overall bit rate                         : 1 434 Kbps

Video
ID                                       : 0
Format                                   : MPEG-4 Visual
Format profile                           : Advanced Simple@L5
Format settings, BVOP                    : 3
Format settings, QPel                    : No
Format settings, GMC                     : No warppoints
Format settings, Matrix                  : Default (H.263)
Codec ID                                 : XVID
Codec ID/Hint                            : XviD
Duration                                 : 1h 37mn
Bit rate                                 : 1 043 Kbps
Width                                    : 720 pixels
Height                                   : 304 pixels
Display aspect ratio                     : 2.35:1
Frame rate                               : 23.976 fps
Color space                              : YUV
Chroma subsampling                       : 4:2:0
Bit depth                                : 8 bits
Scan type                                : Progressive
Compression mode                         : Lossy
Bits/(Pixel*Frame)                       : 0.199
Stream size                              : 728 MiB (73%)
Writing library                          : XviD 1.2.1 (UTC 2008-12-04)

Audio
ID                                       : 1
Format                                   : AC-3
Format/Info                              : Audio Coding 3
Mode extension                           : CM (complete main)
Codec ID                                 : 2000
Duration                                 : 1h 37mn
Bit rate mode                            : Constant
Bit rate                                 : 384 Kbps
Channel(s)                               : 6 channels
Channel positions                        : Front: L C R, Side: L R, LFE
Sampling rate                            : 48.0 KHz
Bit depth                                : 16 bits
Compression mode                         : Lossy
Stream size                              : 268 MiB (27%)
Alignment                                : Aligned on interleaves
Interleave, duration                     : 64 ms (1.53 video frames)
Interleave, preload duration             : 192 ms
Title                                    : 5.1 6ch

Screenshots:
[IMG]http://img823.imageshack.us/img823/5032/anamericancrime2007brri.jpg[/IMG]
[IMG]http://img821.imageshack.us/img821/8903/vlcsnap2012013013h19m21.png[/IMG]
[IMG]http://img215.imageshack.us/img215/1360/vlcsnap2012013013h20m05.png[/IMG]
[IMG]http://img215.imageshack.us/img215/4/vlcsnap2012013013h20m32.png[/IMG]
[IMG]http://img824.imageshack.us/img824/9116/vlcsnap2012013013h21m00.png[/IMG]
[IMG]http://img80.imageshack.us/img80/5253/vlcsnap2012013013h21m19.png[/IMG]
[IMG]http://img36.imageshack.us/img36/3129/vlcsnap2012013013h22m46.png[/IMG]

Note:  Audio stripped from source and converted from DTS to ac3 5.1 384kbps and muxed to our encode.  Video, denoised real nice, was grainy, added a few other filters, doctored the video up and came together real nice :)  :D

Source:  An.American.Crime.2007.720p.BluRay.DTS.x264-DON  -  MANY THANKS :)

Enjoy!

Respects to T00NG0D, ELEKTRI4KA, PA, YeFsTe, MrRep and everyone in the struggle...